<?xml version="1.0" encoding="utf-8"?>
<!-- Generator: Adobe Illustrator 16.0.0, SVG Export Plug-In . SVG Version: 6.00 Build 0)  -->
<!DOCTYPE svg PUBLIC "-//W3C//DTD SVG 1.1//EN" "http://www.w3.org/Graphics/SVG/1.1/DTD/svg11.dtd">
<svg version="1.1" id="Layer_1" xmlns="http://www.w3.org/2000/svg" xmlns:xlink="http://www.w3.org/1999/xlink" x="0px" y="0px"
	 width="300px" height="70px" viewBox="0 0 300 70" enable-background="new 0 0 300 70" xml:space="preserve">
<g>
	<path fill="#424243" d="M128.292,45.84c-0.417,0-0.576-0.089-0.594-0.112c-0.021-0.025-0.075-0.221,0.044-0.682l4.629-17.922h8.145
		l1.303-5.198l-8.105,0.006l2.052-7.945h-5.822l-2.053,7.948l-4.296,0.003l-1.325,5.186h4.28l-4.342,16.801l-0.018,0.088
		c-0.007,0.042-0.168,1.058-0.168,1.807c0,3.713,2.096,5.76,5.902,5.76c2.982,0,6.05-1.263,6.178-1.316l0.443-0.186l1.887-7.314
		l-1.909,0.983C133.392,44.328,130.065,45.84,128.292,45.84z"/>
	<path fill="#424243" d="M159.023,28.007l0.76,0.015l1.719-6.656h-1.242c-5.705,0-8.614,2.693-11.258,5.482l1.268-4.921h-5.822
		l-7.505,29.161h5.822l3.291-12.788c0.308-0.818,4.06-10.296,12.731-10.296C158.865,28.004,158.943,28.005,159.023,28.007z"/>
	<path fill="#424243" d="M174.693,21.35c-8.138,0-15.984,6.706-17.492,14.948c-0.762,4.154,0.157,8.047,2.589,10.963
		c2.33,2.799,5.781,4.34,9.718,4.34h0.003l0,0c8.137,0,15.982-6.706,17.493-14.947c0.76-4.154-0.16-8.047-2.589-10.964
		C182.083,22.892,178.632,21.351,174.693,21.35z M163.121,36.646c0.94-5.128,5.813-9.3,10.864-9.3v-0.962l0,0l0.002,0.962
		c2.315,0,4.33,0.891,5.676,2.506c1.411,1.694,1.939,3.985,1.487,6.45c-0.942,5.129-5.815,9.302-10.868,9.302
		c-2.313,0-4.33-0.891-5.676-2.506C163.195,41.404,162.667,39.113,163.121,36.646z M169.511,50.639L169.511,50.639L169.511,50.639
		L169.511,50.639z"/>
	<path fill="#424243" d="M272.275,13.986l-3.427,13.198c-1.979-3.62-5.581-5.834-9.789-5.835c-7.378,0-14.49,6.714-15.851,14.967
		c-0.719,4.36,0.283,8.531,2.75,11.439c2.104,2.479,5.098,3.845,8.431,3.845h0.003c3.124,0,6.271-1.183,8.979-3.323l-0.729,2.811
		h5.822l9.633-37.102H272.275z M248.748,36.645c0.932-5.126,5.762-9.298,10.764-9.298v-0.962l0,0v0.962
		c2.154,0,4.068,0.798,5.393,2.246c1.357,1.481,2.005,3.522,1.826,5.752l-0.876,3.371c-1.81,4.061-5.913,6.889-10.014,6.889
		c-2.278,0-4.267-0.881-5.598-2.477C248.826,41.429,248.296,39.128,248.748,36.645z M254.393,50.639L254.393,50.639L254.393,50.639
		L254.393,50.639z"/>
	<path fill="#424243" d="M82.063,21.37c-6.875,0-13.947,5.829-15.763,12.995c-0.018,0.069-0.034,0.138-0.049,0.208l-4.29,16.514
		h5.822l4.149-15.962l0.02-0.086c0.015-0.067,0.029-0.132,0.045-0.199c1.06-4.165,5.134-7.553,9.086-7.553
		c1.701,0,3.146,0.656,4.07,1.846c1.033,1.328,1.334,3.237,0.827,5.237c-0.017,0.066-0.036,0.132-0.054,0.197l-4.296,16.521h5.666
		l4.146-15.95l0.026-0.093c0.02-0.066,0.038-0.133,0.056-0.2c0.944-3.721,0.345-7.319-1.64-9.872
		C88.077,22.651,85.301,21.371,82.063,21.37z"/>
	<path fill="#424243" d="M213.071,38.85c0.012-0.039,0.023-0.078,0.034-0.122c0.012-0.047,0.021-0.095,0.033-0.142l4.304-16.58
		h-5.824l-3.067,11.805l-1.19,4.602c-1.167,4.491-4.716,7.395-9.041,7.395c-1.7,0-3.146-0.655-4.069-1.846
		c-1.033-1.327-1.336-3.237-0.829-5.236c0.02-0.071,0.039-0.143,0.061-0.215l4.291-16.504h-5.666l-4.146,15.95l-0.025,0.092
		c-0.02,0.068-0.038,0.135-0.056,0.203c-0.943,3.72-0.345,7.319,1.642,9.872c1.807,2.322,4.584,3.602,7.819,3.602
		c3.329,0,5.61-1.071,7.192-2.298l-0.42,1.661h5.815l3.128-12.18L213.071,38.85z"/>
	<path fill="#424243" d="M232.922,21.366c-6.875,0-13.945,5.83-15.763,12.995c-0.018,0.07-0.032,0.139-0.049,0.209l-4.289,16.517
		h5.823l4.149-15.965l0.019-0.08c0.015-0.068,0.03-0.137,0.047-0.205c1.058-4.166,5.132-7.554,9.085-7.554
		c1.7,0.001,3.146,0.656,4.071,1.846c1.033,1.329,1.334,3.238,0.825,5.241c-0.017,0.064-0.036,0.132-0.054,0.197l-4.296,16.521
		h5.667l4.146-15.953l0.026-0.093c0.018-0.065,0.037-0.132,0.055-0.2c0.942-3.721,0.346-7.32-1.642-9.873
		C238.937,22.646,236.16,21.367,232.922,21.366z"/>
	<path fill="#424243" d="M109.055,21.173c-7.379,0-14.49,6.75-15.851,15.046c-0.723,4.402,0.288,8.604,2.773,11.529
		c2.102,2.474,5.088,3.837,8.408,3.837c5.376,0,8.19-0.75,11.579-3.085l0.78-0.535l-3.255-4.901l-0.784,0.462
		c-2.883,1.692-4.309,2.081-7.628,2.081c-3.456,0-6.058-2.604-6.468-6.315h20.97l0.198-0.699c0.197-0.693,0.354-1.385,0.464-2.054
		c0.721-4.401-0.29-8.603-2.774-11.527C115.365,22.538,112.379,21.174,109.055,21.173z M108.425,27.151v-0.962l0,0l0.001,0.962
		c1.775,0.001,3.336,0.653,4.517,1.888c1.209,1.266,1.902,3.016,1.997,5.001l-15.543,0.008
		C101.021,30.041,104.717,27.151,108.425,27.151z"/>
	<path fill="#424243" d="M286.937,26.697c0.642,0,1.351,0.07,2.1,0.207c2.606,0.474,4.726,1.8,5.842,2.883l0.83,0.808l3.039-4.581
		l-0.596-0.556c-1.493-1.395-4.624-3.096-8.25-3.756c-0.989-0.18-1.959-0.272-2.883-0.272c-6.223,0-9.744,4.044-10.473,8.053
		c-0.57,3.126,1.513,6.514,5.063,8.237l4.348,1.803c3.18,1.475,3.382,2.809,3.199,3.806c-0.469,2.576-2.945,3.116-4.94,3.116
		c-0.804,0-1.679-0.089-2.597-0.265c-3.144-0.603-5.783-3.13-6.277-3.629l-0.697-0.698l-4.113,4.273l0.68,0.667
		c1.452,1.427,5.23,3.751,9.08,4.45c1.208,0.222,2.408,0.332,3.57,0.332c6.005,0,10.099-2.899,10.954-7.757
		c0.736-4.166-0.973-6.787-5.909-9.057l-4.313-1.917c-2.291-1.112-2.587-1.693-2.415-2.65
		C282.469,28.599,283.529,26.697,286.937,26.697z"/>
</g>
<path fill-rule="evenodd" clip-rule="evenodd" fill="#4299D3" d="M44.384,9.551c3.992,4.4,9.062,11.318,9.287,18.126
	c0.54,9.541-6.089,20.407-19.345,21.479c-11.488,0.927-18.57-8.074-18.848-14.557c-0.841-10.821,7.248-15.917,14.316-15.718
	c11.435,0.247,14.574,12.262,15.054,16.351c4.919-8.42-0.229-27.879-18.686-27.747c-9.746-0.057-24.27,8.417-23.928,27.06
	C2.583,53.495,17.169,62.503,30.59,62.503c15.468,0,27.497-12.651,27.861-26.916C58.826,20.973,50.278,13.599,44.384,9.551z"/>
<path fill-rule="evenodd" clip-rule="evenodd" fill="#8EC5EB" d="M26.823,58.381C-0.359,55.735,1.907,29.19,6.392,22.653
	c-1.559,8.484-1.943,27.304,18.309,31.578c13.436,2.835,28.076-5.438,31.404-20.274C54.576,47.181,39.833,59.647,26.823,58.381z
	 M24.911,13.362c-10.478,2.076-16.124,12.082-11.574,22.82c-5.37-4.286-5.731-12.105-5.682-15.56
	c1.77-3.871,8.214-11.636,18.94-11.825c9.409-0.125,14.754,4.884,16.681,13.692C38.102,12.527,28.419,12.667,24.911,13.362z"/>
</svg>
