<?xml version="1.0" standalone="no"?><!-- Generator: Gravit.io --><svg xmlns="http://www.w3.org/2000/svg" xmlns:xlink="http://www.w3.org/1999/xlink" style="isolation:isolate" viewBox="0 0 1540.481 285.838" width="1540.481" height="285.838"><defs><clipPath id="_clipPath_Zr7QtefdHdtYV3OYx2dxIbxcl1FgU51k"><rect width="1540.481" height="285.838"/></clipPath></defs><g clip-path="url(#_clipPath_Zr7QtefdHdtYV3OYx2dxIbxcl1FgU51k)"><path d=" M 659.834 200.033 C 657.67 200.033 656.839 199.565 656.75 199.45 C 656.642 199.31 656.363 198.302 656.98 195.909 L 681.031 102.795 L 723.336 102.795 L 730.115 75.79 L 688.001 75.819 L 698.665 34.545 L 668.415 34.545 L 657.746 75.84 L 635.433 75.855 L 628.544 102.795 L 650.781 102.795 L 628.23 190.077 L 628.134 190.538 C 628.098 190.761 627.261 196.036 627.261 199.92 C 627.261 219.217 638.149 229.844 657.92 229.844 C 673.416 229.844 689.356 223.284 690.027 223.005 L 692.325 222.049 L 702.131 184.048 L 692.216 189.15 C 686.332 192.177 669.045 200.033 659.834 200.033 Z " fill="rgb(255,255,255)"/><path d=" M 814.583 106.624 L 818.533 106.701 L 827.457 72.119 L 821.004 72.119 C 791.366 72.119 776.256 86.108 762.518 100.598 L 769.099 75.035 L 738.851 75.035 L 699.868 226.535 L 730.115 226.535 L 747.208 160.095 C 748.805 155.846 768.302 106.612 813.35 106.612 C 813.76 106.612 814.168 106.616 814.583 106.624 Z " fill="rgb(255,255,255)"/><path d=" M 835.867 151.51 C 840.756 124.869 866.078 103.194 892.311 103.194 L 892.311 98.195 L 892.325 103.194 C 904.349 103.197 914.821 107.821 921.81 116.213 C 929.142 125.016 931.885 136.919 929.533 149.729 C 924.641 176.372 899.32 198.048 873.078 198.048 C 861.05 198.044 850.578 193.42 843.589 185.028 C 836.256 176.224 833.514 164.321 835.867 151.51 Z  M 895.988 72.039 C 853.717 72.039 812.95 106.879 805.111 149.702 C 801.16 171.277 805.936 191.503 818.56 206.652 C 830.673 221.188 848.604 229.197 869.049 229.202 L 869.068 229.202 L 869.071 229.202 C 911.337 229.202 952.103 194.361 959.945 151.538 C 963.895 129.962 959.118 109.736 946.493 94.587 C 934.38 80.052 916.449 72.044 895.988 72.039 Z " fill="rgb(255,255,255)"/><path d=" M 1280.72 151.502 C 1285.565 124.865 1310.646 103.194 1336.631 103.194 L 1336.631 98.195 L 1336.644 103.194 C 1347.828 103.197 1357.779 107.34 1364.66 114.86 C 1371.706 122.56 1375.063 133.16 1374.134 144.747 L 1369.586 162.258 C 1360.195 183.35 1338.862 198.048 1317.565 198.048 C 1305.734 198.044 1295.408 193.473 1288.489 185.179 C 1281.131 176.357 1278.372 164.398 1280.72 151.502 Z  M 1402.949 33.785 L 1385.144 102.35 C 1374.865 83.548 1356.153 72.045 1334.29 72.039 C 1295.955 72.039 1259.015 106.918 1251.946 149.788 C 1248.207 172.451 1253.415 194.115 1266.234 209.224 C 1277.158 222.102 1292.713 229.197 1310.032 229.202 L 1310.05 229.202 C 1326.279 229.202 1342.616 223.051 1356.687 211.933 L 1352.896 226.535 L 1383.149 226.535 L 1433.202 33.785 L 1402.949 33.785 Z " fill="rgb(255,255,255)"/><path d=" M 414.752 72.144 C 379.035 72.144 342.298 102.431 332.86 139.658 C 332.768 140.019 332.688 140.378 332.609 140.736 L 310.324 226.536 L 340.578 226.536 L 362.132 143.603 L 362.234 143.156 C 362.31 142.813 362.385 142.472 362.473 142.124 C 367.969 120.488 389.138 102.886 409.671 102.886 C 418.505 102.888 426.016 106.292 430.821 112.473 C 436.189 119.375 437.752 129.293 435.113 139.682 C 435.026 140.025 434.927 140.365 434.83 140.706 L 412.513 226.536 L 441.954 226.536 L 463.49 143.671 L 463.625 143.193 C 463.724 142.847 463.823 142.499 463.912 142.147 C 468.813 122.82 465.707 104.129 455.39 90.866 C 446.002 78.797 431.575 72.148 414.752 72.144 Z " fill="rgb(255,255,255)"/><path d=" M 1095.374 162.953 C 1095.433 162.75 1095.49 162.547 1095.548 162.322 C 1095.609 162.075 1095.664 161.83 1095.718 161.585 L 1118.081 75.452 L 1087.827 75.452 L 1071.886 136.786 L 1065.702 160.689 C 1059.636 184.024 1041.199 199.102 1018.732 199.102 C 1009.901 199.102 1002.392 195.699 997.586 189.52 C 992.217 182.617 990.651 172.697 993.289 162.314 C 993.385 161.94 993.492 161.569 993.599 161.198 L 1015.892 75.452 L 986.452 75.452 L 964.915 158.317 L 964.781 158.792 C 964.681 159.141 964.582 159.491 964.493 159.84 C 959.591 179.171 962.699 197.866 973.02 211.13 C 982.409 223.199 996.834 229.844 1013.639 229.844 C 1030.94 229.844 1042.79 224.282 1051.004 217.901 L 1048.828 226.536 L 1079.045 226.536 L 1095.287 163.261 L 1095.374 162.953 Z " fill="rgb(255,255,255)"/><path d=" M 1198.503 72.122 C 1162.786 72.122 1126.049 102.414 1116.613 139.637 C 1116.52 140.001 1116.44 140.361 1116.359 140.722 L 1094.073 226.536 L 1124.328 226.536 L 1145.882 143.591 L 1145.978 143.177 C 1146.056 142.82 1146.134 142.464 1146.223 142.112 C 1151.72 120.472 1172.888 102.867 1193.421 102.867 C 1202.254 102.869 1209.765 106.273 1214.57 112.454 C 1219.939 119.358 1221.503 129.278 1218.86 139.679 C 1218.774 140.023 1218.675 140.363 1218.576 140.704 L 1196.263 226.536 L 1225.705 226.536 L 1247.241 143.659 L 1247.379 143.17 C 1247.476 142.831 1247.571 142.493 1247.663 142.135 C 1252.564 122.803 1249.456 104.108 1239.137 90.843 C 1229.748 78.775 1215.323 72.126 1198.503 72.122 Z " fill="rgb(255,255,255)"/><path d=" M 551.712 102.181 L 551.712 97.181 L 551.723 102.181 C 560.942 102.183 569.056 105.575 575.188 111.988 C 581.471 118.559 585.077 127.656 585.561 137.962 L 504.813 138.006 C 513.248 117.189 532.448 102.181 551.712 102.181 Z  M 554.986 71.123 C 516.645 71.123 479.702 106.19 472.634 149.294 C 468.885 172.159 474.138 193.989 487.046 209.186 C 497.964 222.04 513.477 229.119 530.727 229.119 C 558.65 229.119 573.268 225.227 590.882 213.098 L 594.933 210.309 L 578.024 184.854 L 573.944 187.249 C 558.969 196.04 551.562 198.061 534.316 198.061 C 516.358 198.061 502.841 184.541 500.711 165.254 L 609.652 165.254 L 610.687 161.623 C 611.713 158.016 612.524 154.424 613.094 150.947 C 616.842 128.087 611.59 106.262 598.687 91.066 C 587.769 78.21 572.254 71.127 554.986 71.123 Z " fill="rgb(255,255,255)"/><path d=" M 1479.118 99.824 C 1482.456 99.824 1486.127 100.184 1490.029 100.894 C 1503.557 103.354 1514.57 110.245 1520.366 115.873 L 1524.685 120.068 L 1540.481 96.27 L 1537.384 93.38 C 1529.621 86.137 1513.359 77.296 1494.525 73.868 C 1489.388 72.934 1484.347 72.46 1479.545 72.46 C 1447.22 72.46 1428.926 93.47 1425.136 114.293 C 1422.18 130.537 1432.998 148.137 1451.441 157.091 L 1474.036 166.458 C 1490.555 174.114 1491.596 181.042 1490.653 186.225 C 1488.219 199.609 1475.35 202.418 1464.984 202.418 C 1460.799 202.418 1456.259 201.955 1451.489 201.041 C 1435.156 197.914 1421.45 184.786 1418.868 182.186 L 1415.265 178.559 L 1393.881 200.759 L 1397.415 204.229 C 1404.966 211.64 1424.597 223.714 1444.597 227.351 C 1450.872 228.492 1457.108 229.072 1463.134 229.072 C 1494.33 229.072 1515.608 214.007 1520.055 188.775 C 1523.868 167.135 1514.988 153.509 1489.345 141.716 L 1466.94 131.762 C 1455.043 125.976 1453.499 122.959 1454.403 117.99 C 1455.911 109.702 1461.422 99.824 1479.118 99.824 Z " fill="rgb(255,255,255)"/><path d=" M 219.007 10.739 C 239.744 33.599 266.092 69.543 267.256 104.912 C 270.059 154.475 235.624 210.929 166.761 216.492 C 107.077 221.313 70.283 174.548 68.836 140.869 C 64.469 84.654 106.493 58.175 143.21 59.21 C 202.621 60.492 218.929 122.913 221.421 144.154 C 246.974 100.411 220.227 -0.685 124.347 0.003 C 73.715 -0.292 -1.745 43.731 0.031 140.584 C 1.839 239.041 77.625 285.838 147.347 285.838 C 227.707 285.838 290.195 220.109 292.094 146.006 C 294.039 70.084 249.628 31.773 219.007 10.739 Z  M 117.847 30.543 C 63.412 41.328 34.079 93.312 57.71 149.1 C 29.814 126.836 27.939 86.209 28.189 68.266 C 37.39 48.151 70.863 7.81 126.594 6.832 C 175.469 6.18 203.243 32.207 213.253 77.966 C 186.37 26.205 136.07 26.933 117.847 30.543 L 117.847 30.543 Z  M 127.781 264.423 C -13.446 250.678 -1.666 112.772 21.628 78.81 C 13.533 122.89 11.541 220.662 116.754 242.867 C 186.554 257.598 262.618 214.615 279.906 137.538 C 271.959 206.239 195.368 271.001 127.781 264.423 L 127.781 264.423 Z " fill-rule="evenodd" fill="rgb(255,255,255)"/></g></svg>