<?xml version="1.0" encoding="UTF-8" standalone="no"?><!-- Generator: Gravit.io --><svg xmlns="http://www.w3.org/2000/svg" xmlns:xlink="http://www.w3.org/1999/xlink" style="isolation:isolate" viewBox="0 0 100 20" width="100pt" height="20pt"><defs><clipPath id="_clipPath_5euaLmY1AXFZDhoAGek9BpESYi9mScFS"><rect width="100" height="20"/></clipPath></defs><g clip-path="url(#_clipPath_5euaLmY1AXFZDhoAGek9BpESYi9mScFS)"><rect x="7.172" y="11.438" width="3.609" height="7.781" transform="matrix(1,0,0,1,0,0)" fill="rgb(1,140,173)"/><rect x="16.734" y="6.656" width="3.609" height="12.563" transform="matrix(1,0,0,1,0,0)" fill="rgb(1,140,173)"/><rect x="26.297" y="10.609" width="3.609" height="8.61" transform="matrix(1,0,0,1,0,0)" fill="rgb(1,140,173)"/><rect x="35.859" y="2.25" width="3.609" height="16.969" transform="matrix(1,0,0,1,0,0)" fill="rgb(1,140,173)"/><rect x="45.422" y="6.656" width="3.609" height="12.562" transform="matrix(1,0,0,1,0,0)" fill="rgb(1,140,173)"/><rect x="54.984" y="14.977" width="3.609" height="4.242" transform="matrix(1,0,0,1,0,0)" fill="rgb(1,140,173)"/><rect x="64.547" y="6.656" width="3.609" height="12.562" transform="matrix(1,0,0,1,0,0)" fill="rgb(1,140,173)"/><rect x="74.109" y="12.938" width="3.609" height="6.281" transform="matrix(1,0,0,1,0,0)" fill="rgb(1,140,173)"/><rect x="83.672" y="1.312" width="3.609" height="17.906" transform="matrix(1,0,0,1,0,0)" fill="rgb(1,140,173)"/><rect x="11.484" y="13.594" width="3.609" height="5.625" transform="matrix(1,0,0,1,0,0)" fill="rgb(15,93,113)"/><rect x="21.047" y="10.609" width="3.609" height="8.61" transform="matrix(1,0,0,1,0,0)" fill="rgb(15,93,113)"/><rect x="30.609" y="11.437" width="3.609" height="7.781" transform="matrix(1,0,0,1,0,0)" fill="rgb(15,93,113)"/><rect x="40.172" y="6" width="3.609" height="13.219" transform="matrix(1,0,0,1,0,0)" fill="rgb(15,93,113)"/><rect x="49.734" y="10.734" width="3.609" height="8.484" transform="matrix(1,0,0,1,0,0)" fill="rgb(15,93,113)"/><rect x="59.297" y="11.437" width="3.609" height="7.781" transform="matrix(1,0,0,1,0,0)" fill="rgb(15,93,113)"/><rect x="68.859" y="10.609" width="3.609" height="8.61" transform="matrix(1,0,0,1,0,0)" fill="rgb(15,93,113)"/><rect x="78.422" y="9.891" width="3.609" height="9.328" transform="matrix(1,0,0,1,0,0)" fill="rgb(15,93,113)"/><rect x="87.984" y="6" width="3.609" height="13.219" transform="matrix(1,0,0,1,0,0)" fill="rgb(15,93,113)"/></g></svg>