<?xml version="1.0" encoding="UTF-8" standalone="no"?><!-- Generator: Gravit.io --><svg xmlns="http://www.w3.org/2000/svg" xmlns:xlink="http://www.w3.org/1999/xlink" style="isolation:isolate" viewBox="0 0 100 20" width="100pt" height="20pt"><defs><clipPath id="_clipPath_rnA2PfUtZQgICF4EFsCjRk1jYKSdF78r"><rect width="100" height="20"/></clipPath></defs><g clip-path="url(#_clipPath_rnA2PfUtZQgICF4EFsCjRk1jYKSdF78r)"><rect x="7.172" y="11.438" width="7.922" height="7.781" transform="matrix(1,0,0,1,0,0)" fill="rgb(1,140,173)"/><rect x="16.734" y="6.656" width="7.922" height="12.563" transform="matrix(1,0,0,1,0,0)" fill="rgb(1,140,173)"/><rect x="26.297" y="10.609" width="7.922" height="8.61" transform="matrix(1,0,0,1,0,0)" fill="rgb(1,140,173)"/><rect x="35.859" y="2.25" width="7.922" height="16.969" transform="matrix(1,0,0,1,0,0)" fill="rgb(1,140,173)"/><rect x="45.422" y="6.656" width="7.922" height="12.562" transform="matrix(1,0,0,1,0,0)" fill="rgb(1,140,173)"/><rect x="64.547" y="6.656" width="7.922" height="12.562" transform="matrix(1,0,0,1,0,0)" fill="rgb(1,140,173)"/><rect x="83.672" y="1.312" width="7.922" height="17.906" transform="matrix(1,0,0,1,0,0)" fill="rgb(1,140,173)"/><rect x="7.172" y="13.594" width="7.922" height="5.625" transform="matrix(1,0,0,1,0,0)" fill="rgb(15,93,113)"/><rect x="16.734" y="10.609" width="7.922" height="8.61" transform="matrix(1,0,0,1,0,0)" fill="rgb(15,93,113)"/><rect x="26.297" y="11.437" width="7.922" height="7.781" transform="matrix(1,0,0,1,0,0)" fill="rgb(15,93,113)"/><rect x="35.859" y="6" width="7.922" height="13.219" transform="matrix(1,0,0,1,0,0)" fill="rgb(15,93,113)"/><rect x="45.422" y="10.734" width="7.922" height="8.484" transform="matrix(1,0,0,1,0,0)" fill="rgb(15,93,113)"/><rect x="54.984" y="11.437" width="7.922" height="7.781" transform="matrix(1,0,0,1,0,0)" fill="rgb(15,93,113)"/><rect x="64.547" y="10.609" width="7.922" height="8.61" transform="matrix(1,0,0,1,0,0)" fill="rgb(15,93,113)"/><rect x="74.109" y="9.891" width="7.922" height="9.328" transform="matrix(1,0,0,1,0,0)" fill="rgb(15,93,113)"/><rect x="83.672" y="6" width="7.922" height="13.219" transform="matrix(1,0,0,1,0,0)" fill="rgb(15,93,113)"/><rect x="54.984" y="14.977" width="7.922" height="4.242" transform="matrix(1,0,0,1,0,0)" fill="rgb(1,140,173)"/><rect x="74.109" y="12.937" width="7.922" height="6.281" transform="matrix(1,0,0,1,0,0)" fill="rgb(1,140,173)"/></g></svg>